<svg version="1.1" id="general" xmlns="http://www.w3.org/2000/svg" xmlns:xlink="http://www.w3.org/1999/xlink" x="0px" y="0px"
	 viewBox="0 0 24.3 23.9" enable-background="new 0 0 24.3 23.9" xml:space="preserve">
<g>
	<g>
		<g>
			<rect x="3.8" y="9.3" fill="#FFFFFF" stroke-width="0.75" stroke-miterlimit="10" width="2.6" height="8.6"/>
			<path fill="#FFFFFF" stroke-width="0.75" stroke-miterlimit="10" d="M2.6,7.8C2.5,8,2.5,8.2,2.5,8.4
				c0,0.8,0.7,1.5,1.5,1.5h2.1c0.8,0,1.5-0.7,1.5-1.5c0-0.2,0-0.4-0.1-0.6H2.6z"/>
			<path fill="#FFFFFF" stroke-width="0.75" stroke-miterlimit="10" d="M7.5,19.6c0.1-0.2,0.1-0.4,0.1-0.6
				c0-0.8-0.7-1.5-1.5-1.5H4c-0.8,0-1.5,0.7-1.5,1.5c0,0.2,0,0.4,0.1,0.6H7.5z"/>
		</g>
		<g>
			<rect x="10.9" y="9.3" fill="#FFFFFF" stroke-width="0.75" stroke-miterlimit="10" width="2.6" height="8.6"/>
			<path fill="#FFFFFF" stroke-width="0.75" stroke-miterlimit="10" d="M9.7,7.8C9.6,8,9.6,8.2,9.6,8.4
				c0,0.8,0.7,1.5,1.5,1.5h2.1c0.8,0,1.5-0.7,1.5-1.5c0-0.2,0-0.4-0.1-0.6H9.7z"/>
			<path fill="#FFFFFF" stroke-width="0.75" stroke-miterlimit="10" d="M14.6,19.6c0.1-0.2,0.1-0.4,0.1-0.6
				c0-0.8-0.7-1.5-1.5-1.5h-2.1c-0.8,0-1.5,0.7-1.5,1.5c0,0.2,0,0.4,0.1,0.6H14.6z"/>
		</g>
		<g>
			<rect x="18" y="9.3" fill="#FFFFFF" stroke-width="0.75" stroke-miterlimit="10" width="2.6" height="8.6"/>
			<path fill="#FFFFFF" stroke-width="0.75" stroke-miterlimit="10" d="M16.8,7.8c-0.1,0.2-0.1,0.4-0.1,0.6
				c0,0.8,0.7,1.5,1.5,1.5h2.1c0.8,0,1.5-0.7,1.5-1.5c0-0.2,0-0.4-0.1-0.6H16.8z"/>
			<path fill="#FFFFFF" stroke-width="0.75" stroke-miterlimit="10" d="M21.8,19.6c0.1-0.2,0.1-0.4,0.1-0.6
				c0-0.8-0.7-1.5-1.5-1.5h-2.1c-0.8,0-1.5,0.7-1.5,1.5c0,0.2,0,0.4,0.1,0.6H21.8z"/>
		</g>
		<line fill="none" stroke-width="0.5" stroke-miterlimit="10" x1="5" y1="9.9" x2="5" y2="17.5"/>
		<line fill="none" stroke-width="0.5" stroke-miterlimit="10" x1="12.1" y1="9.9" x2="12.1" y2="17.5"/>
		<line fill="none" stroke-width="0.5" stroke-miterlimit="10" x1="19.3" y1="9.9" x2="19.3" y2="17.5"/>
	</g>
	<rect x="2.2" y="19.6" fill="#FFFFFF" stroke-width="0.75" stroke-miterlimit="10" width="20" height="1.5"/>
	<polygon fill="none" stroke-width="0.75" stroke-miterlimit="10" points="24,7.7 0.4,7.7 0.4,6.3 12.2,0.4
		24,6.3 	"/>
	<ellipse fill="none" stroke-width="0.75" stroke-miterlimit="10" cx="12" cy="4.3" rx="1.6" ry="1.6"/>
	<g>
		<rect x="0.5" y="21" fill="#FFFFFF" stroke-width="0.75" stroke-miterlimit="10" width="23.3" height="2.6"/>
		<g>
			<line fill="none" stroke-width="0.5" stroke-miterlimit="10" x1="0.6" y1="22.3" x2="3.8" y2="22.3"/>
			<line fill="none" stroke-width="0.5" stroke-miterlimit="10" x1="20.6" y1="22.3" x2="23.8" y2="22.3"/>
		</g>
	</g>
</g>
</svg>
