<svg version="1.1" id="general" xmlns="http://www.w3.org/2000/svg" xmlns:xlink="http://www.w3.org/1999/xlink" x="0px" y="0px"
	 viewBox="0 0 25.1 25" enable-background="new 0 0 25.1 25" xml:space="preserve">
<g>
	<path class="icon-services-optimization" stroke-width="0.2" stroke-miterlimit="10" d="M11.4,21.7c-4.5,0-8.1-3.6-8.1-8.1s3.6-8.1,8.1-8.1
		s8.1,3.6,8.1,8.1S15.9,21.7,11.4,21.7z M11.4,6.2C7.3,6.2,4,9.5,4,13.6s3.3,7.4,7.4,7.4s7.4-3.3,7.4-7.4S15.4,6.2,11.4,6.2z"/>
	<path class="icon-services-optimization" stroke-width="0.2" stroke-miterlimit="10" d="M11.4,18.6c-2.8,0-5-2.3-5-5s2.3-5,5-5s5,2.3,5,5
		S14.2,18.6,11.4,18.6z M11.4,9.3c-2.4,0-4.3,1.9-4.3,4.3s1.9,4.3,4.3,4.3s4.3-1.9,4.3-4.3S13.8,9.3,11.4,9.3z"/>
	<path class="icon-services-optimization" stroke-width="0.2" stroke-miterlimit="10" d="M11.4,15.1c-0.9,0-1.5-0.7-1.5-1.5s0.7-1.5,1.5-1.5
		s1.5,0.7,1.5,1.5S12.2,15.1,11.4,15.1z M11.4,12.8c-0.4,0-0.8,0.4-0.8,0.8s0.4,0.8,0.8,0.8s0.8-0.4,0.8-0.8S11.8,12.8,11.4,12.8z"
		/>
	<path class="icon-services-optimization" stroke-width="0.2" stroke-miterlimit="10" d="M11.8,13.6c-0.1,0-0.2,0-0.3-0.1c-0.1-0.1-0.1-0.4,0-0.5
		L21,3.4c0.1-0.1,0.4-0.1,0.5,0c0.1,0.1,0.1,0.4,0,0.5l-9.5,9.6C12,13.6,11.9,13.6,11.8,13.6z"/>
	<path class="icon-services-optimization" stroke-width="0.2" stroke-miterlimit="10" d="M22.1,7.8h-4.8V2.9h1.5V1.7H20V0.1h2.7v2.2H25v2.5h-1.6v1.5
		h-1.3V7.8z M18,7.1h3.3V5.5h1.3V4h1.6V3h-2.3V0.9h-1.2v1.6h-1.2v1.3H18V7.1z"/>
	<path class="icon-services-optimization" stroke-width="0.2" stroke-miterlimit="10" d="M20.9,7.5H20c1.2,1.7,2,3.8,2,6.1c0,5.8-4.7,10.5-10.5,10.5
		S0.9,19.4,0.9,13.6S5.6,3,11.4,3c2.3,0,4.5,0.8,6.2,2.1V4.2c-1.8-1.2-3.9-1.9-6.2-1.9C5.2,2.3,0.1,7.4,0.1,13.6s5.1,11.3,11.3,11.3
		c6.2,0,11.3-5.1,11.3-11.3C22.7,11.3,22,9.2,20.9,7.5z"/>
</g>
</svg>
