<svg version="1.1" id="general" xmlns="http://www.w3.org/2000/svg" xmlns:xlink="http://www.w3.org/1999/xlink" x="0px" y="0px"
	 viewBox="0 0 14.9 10.7" enable-background="new 0 0 14.9 10.7" xml:space="preserve">
<path d="M9.4,0.1C8,0.5,7.2,1.6,7.3,2.8l0,0.5L6.7,3.2c-2-0.2-3.7-1-5.1-2.2L0.9,0.4L0.7,0.9C0.3,1.9,0.6,3,1.4,3.7
	C1.8,4.1,1.7,4.1,1,3.9C0.7,3.8,0.5,3.8,0.5,3.8C0.4,3.9,0.6,4.7,0.9,5.1C1.1,5.5,1.7,6,2.3,6.3l0.5,0.2l-0.6,0
	c-0.6,0-0.6,0-0.6,0.2c0.2,0.6,1.1,1.3,2,1.5l0.7,0.2L3.8,8.7C2.9,9.2,1.9,9.4,0.9,9.4C0.4,9.5,0,9.5,0,9.5c0,0.1,1.3,0.6,2.1,0.8
	c2.3,0.6,5,0.3,7.1-0.7c1.5-0.7,2.9-2.2,3.6-3.7c0.4-0.8,0.7-2.2,0.7-2.8c0-0.4,0-0.5,0.6-1c0.4-0.3,0.7-0.6,0.8-0.7
	c0.1-0.2,0.1-0.2-0.5,0c-0.9,0.3-1,0.2-0.6-0.2c0.3-0.3,0.7-0.8,0.7-1c0,0-0.2,0-0.3,0.1c-0.2,0.1-0.6,0.2-1,0.3l-0.6,0.2l-0.5-0.3
	c-0.3-0.2-0.7-0.4-0.9-0.4C10.7,0,9.9,0,9.4,0.1z"/>
</svg>
