<svg version="1.1" id="general" xmlns="http://www.w3.org/2000/svg" xmlns:xlink="http://www.w3.org/1999/xlink" x="0px" y="0px"
	 viewBox="0 0 17.8 17" enable-background="new 0 0 17.8 17" xml:space="preserve">
<g>
	<path d="M4.3,2c0,1.1-0.8,2-2.2,2h0C0.8,4,0,3.1,0,2c0-1.1,0.9-2,2.2-2C3.5,0,4.3,0.9,4.3,2L4.3,2z M0.2,17H4V5.5H0.2V17z
		 M13.4,5.3c-2,0-2.9,1.1-3.4,1.9v0h0c0,0,0,0,0,0V5.5H6.2c0.1,1.1,0,11.5,0,11.5H10v-6.4c0-0.3,0-0.7,0.1-0.9
		c0.3-0.7,0.9-1.4,2-1.4c1.4,0,1.9,1.1,1.9,2.6V17h3.8v-6.6C17.8,6.9,15.9,5.3,13.4,5.3L13.4,5.3z M13.4,5.3"/>
</g>
</svg>
