<svg version="1.1" id="general" xmlns="http://www.w3.org/2000/svg" xmlns:xlink="http://www.w3.org/1999/xlink" x="0px" y="0px"
	 viewBox="0 0 23.1 21.5" enable-background="new 0 0 23.1 21.5" xml:space="preserve">
<g>
	<polygon fill="none" stroke-width="0.75" stroke-miterlimit="10" points="3.5,17.1 1.9,20.6 0.4,17.1 0.4,1.4
		3.5,1.4 	"/>
	<line fill="none" stroke-width="0.5" stroke-miterlimit="10" x1="1.9" y1="1.4" x2="1.9" y2="17.1"/>
	<line fill="none" stroke-width="0.5" stroke-miterlimit="10" x1="1.3" y1="19.2" x2="2.6" y2="19.2"/>

		<line fill="none" stroke-width="0.75" stroke-linecap="round" stroke-linejoin="round" stroke-miterlimit="10" x1="0.6" y1="17.1" x2="3.3" y2="17.1"/>
	<g>
		<rect x="6.8" y="5" fill="none" stroke-width="0.75" stroke-miterlimit="10" width="14" height="16.1"/>
		<line fill="none" stroke-width="0.75" stroke-miterlimit="10" x1="18.8" y1="5" x2="18.8" y2="21.1"/>
		<polyline fill="none" stroke-width="0.75" stroke-miterlimit="10" points="20.8,18.7 22.7,18.7 22.7,2.9 		"/>
		<line fill="none" stroke-width="0.75" stroke-miterlimit="10" x1="8.3" y1="8.2" x2="14.1" y2="8.2"/>
		<line fill="none" stroke-width="0.75" stroke-miterlimit="10" x1="8.3" y1="9.9" x2="17.5" y2="9.9"/>
		<line fill="none" stroke-width="0.75" stroke-miterlimit="10" x1="8.3" y1="11.5" x2="14.1" y2="11.5"/>
		<line fill="none" stroke-width="0.75" stroke-miterlimit="10" x1="8.3" y1="13.2" x2="17.5" y2="13.2"/>
		<line fill="none" stroke-width="0.75" stroke-miterlimit="10" x1="8.3" y1="14.8" x2="14.1" y2="14.8"/>

			<line fill="none" stroke-width="0.75" stroke-linecap="round" stroke-linejoin="round" stroke-miterlimit="10" x1="7.8" y1="0.4" x2="19.8" y2="0.4"/>
		<path d="M22.3,2.9H23c0,0,0,0,0-0.1C23,1.3,21.8,0,20.2,0s-2.8,1.3-2.8,2.8c0,0.9,0.4,1.6,1,2.2h1.4V4.9c-0.9-0.2-1.6-1-1.6-2
			c0-1.1,0.9-2.1,2.1-2.1S22.3,1.7,22.3,2.9C22.3,2.9,22.3,2.9,22.3,2.9z"/>
		<path d="M6.2,2.8c0-1,0.7-1.9,1.7-2V0C6.6,0.2,5.5,1.4,5.5,2.8c0,0.9,0.4,1.6,1,2.2h1.4V4.8C6.9,4.6,6.2,3.8,6.2,2.8z"/>
		<circle fill="none" stroke-width="0.5" stroke-miterlimit="10" cx="20.3" cy="2.8" r="0.9"/>
		<line fill="none" stroke-width="0.5" stroke-miterlimit="10" x1="6.2" y1="2.8" x2="8" y2="2.8"/>
		<line fill="none" stroke-width="0.5" stroke-miterlimit="10" x1="16.1" y1="2.8" x2="17.8" y2="2.8"/>
	</g>
	<polygon stroke-width="0.2758" stroke-miterlimit="10" points="2.5,19.2 1.9,20.6 1.4,19.2 	"/>
</g>
</svg>
