<svg version="1.1" id="general" xmlns="http://www.w3.org/2000/svg" xmlns:xlink="http://www.w3.org/1999/xlink" x="0px" y="0px"
	 viewBox="0 0 12.8 12.8" enable-background="new 0 0 12.8 12.8" xml:space="preserve">
<g>
	<path d="M6.4,0C2.9,0,0,2.9,0,6.4c0,3.5,2.9,6.4,6.4,6.4c3.5,0,6.4-2.9,6.4-6.4C12.8,2.9,9.9,0,6.4,0L6.4,0z M10.3,7.8
		c0,0.5-0.4,1.2-1,1.3c-1.8,0.1-4,0.1-5.8,0c-0.6-0.1-1-0.8-1-1.3C2.4,6.7,2.4,6.1,2.5,5c0-0.5,0.4-1.2,1-1.3c1.9-0.2,4-0.1,5.8,0
		c0.6,0,1,0.7,1,1.2C10.4,6,10.4,6.7,10.3,7.8L10.3,7.8z M10.3,7.8"/>
	<path d="M5.6,8L8,6.4L5.6,4.8V8z M5.6,8"/>
</g>
</svg>
