<svg version="1.1" id="general" xmlns="http://www.w3.org/2000/svg" xmlns:xlink="http://www.w3.org/1999/xlink" x="0px" y="0px"
	 viewBox="0 0 232.8 109.7" enable-background="new 0 0 232.8 109.7" xml:space="preserve">
<g>
	<path stroke-width="0.25" stroke-miterlimit="10" d="M80.4,17c-0.2-0.2-0.4-0.4-0.7-0.4
		c0,0-3-0.3-7.2-0.5V1.2c0-0.4-0.2-0.7-0.5-0.9c-0.3-0.2-0.7-0.2-1,0L58.7,7.1c-4.5-2.9-11-6.1-18-6.1h-1.6c-7,0-13.5,3.2-18,6.1
		L9,0.3c-0.3-0.2-0.7-0.2-1,0C7.6,0.5,7.4,0.8,7.4,1.2v15c-3.7,0.2-6.3,0.4-6.4,0.4c-0.6,0.1-1,0.6-0.9,1.1
		C0.2,18.5,1.6,33,7.4,42.4v10.7C7,53,6.7,52.9,6.6,52.9c-0.3-0.1-0.6,0-0.9,0.2c-0.3,0.2-0.4,0.5-0.4,0.8c0,0.9-0.8,22.6,7.7,35
		c6.7,9.7,14.8,14.8,19.4,17.1c4.1,2.3,7.1,3.4,7.3,3.4c0.1,0,0.2,0.1,0.4,0.1c0.1,0,0.3,0,0.4-0.1c0.2-0.1,2.9-1.2,6.7-3.4
		c4.6-2.3,12.8-7.4,19.4-17.1c1.1-1.6,2-3.4,2.9-5.2c2.1-4.1,3.4-8.5,3.7-12.9c1.5-8.7,1.2-16.4,1.2-16.9c0-0.3-0.2-0.6-0.4-0.8
		c-0.3-0.2-0.6-0.3-0.9-0.2c-0.1,0-0.3,0.1-0.6,0.2v-9.3c2.1-3.1,4-7.5,5.6-13.1c1.9-6.7,2.6-12.6,2.6-12.9
		C80.7,17.5,80.6,17.2,80.4,17z M9.5,3l11.2,6.3c0.3,0.2,0.8,0.2,1.1,0c3.1-2.1,7.5-4.4,12.3-5.5v7.5c0,0.6,0.5,1,1,1
		c0.6,0,1-0.5,1-1V3.3c0.9-0.1,1.8-0.2,2.7-0.2v11c0,0.6,0.5,1,1,1c0.6,0,1-0.5,1-1v-11c0.9,0,1.8,0.1,2.7,0.2v7.9c0,0.6,0.5,1,1,1
		c0.6,0,1-0.5,1-1V3.7c4.8,1.1,9.1,3.4,12.3,5.5c0.3,0.2,0.7,0.2,1.1,0L70.4,3V16c-1.1,0-2.2,0-3.3,0c-10,0-16.8,1.3-20.1,3.7
		c-2.9,2.1-4.9,4.9-6.1,8.1c-0.2,0.4-0.4,0.8-0.6,1.3c-1-3.6-3.2-6.9-6.5-9.3C30.5,17.2,23.7,16,13.7,16c-1.4,0-2.8,0-4.2,0.1V3z
		 M54.1,47.9c-1.9,0-4.2-0.7-6-1.5c-1.2-0.9-2.2-1.9-3.1-3.2c-3.2-4.4-3.8-9.9-2.1-14.6C45,24.7,49.3,22,54.1,22
		C61.2,22,67,27.8,67,35C67,42.1,61.2,47.9,54.1,47.9z M26.1,47.9c-7.1,0-12.9-5.8-12.9-12.9C13.2,27.8,19,22,26.1,22
		c6.2,0,11.5,4.4,12.7,10.3c0.4,3.7-0.6,7.7-3,10.9c-0.7,1-1.5,1.8-2.4,2.6C31.6,46.7,28.5,47.9,26.1,47.9z M37.5,44.5
		c1.4-1.9,2.3-3.9,2.8-6c0.6,2.1,1.5,4.1,2.9,6c0.2,0.2,0.3,0.4,0.5,0.6c0,0-0.1,0.1-0.1,0.1L40.1,50l-3.4-4.5
		C37,45.2,37.3,44.9,37.5,44.5z M13.7,18.1c9.4,0,15.9,1.1,18.9,3.3c0,0,0,0,0,0c-2-0.9-4.2-1.5-6.5-1.5c-8.3,0-15,6.7-15,15
		c0,7,4.8,12.9,11.3,14.6c-3-0.2-5.8-1.2-8.4-3c-8.3-5.6-11-23.4-11.6-28C4.3,18.4,8.7,18.1,13.7,18.1z M35.6,104
		c-0.1,0.4-0.1,0.8-0.2,1.2c-0.4-0.2-1-0.4-1.6-0.7c-0.8-0.5-1.7-1-2.7-1.6c6-15.4,0-32.8-13.4-43c5.6,3.1,11.7,8,15.1,15.1
		C38.1,86.4,36.3,98.7,35.6,104z M14.8,87.8c-6.6-9.6-7.3-25.6-7.4-31.5c18.7,7.9,28.4,27.9,21.9,45.4c-1.4-1-2.9-2-4.4-3.2
		c-2.8-2.3-5.4-4.7-7.6-7.3C16.5,90.1,15.6,89,14.8,87.8z M44.3,105.1c0-0.3-0.1-0.7-0.2-1.2c-0.8-5.3-2.5-17.6,2.8-29.1
		c3.3-7.1,9.5-12,15.1-15.1c-13.5,10.3-19.4,27.6-13.5,43c-0.9,0.6-1.7,1.1-2.5,1.5C45.3,104.7,44.7,104.9,44.3,105.1z M66.3,85.6
		c-2.8,4.4-6.5,8.5-11.1,12.4c-1.6,1.4-3.2,2.6-4.8,3.7c-6.5-17.4,3.2-37.5,21.9-45.3C72.2,61.7,71.6,75.9,66.3,85.6z M70.4,53.7
		C64.6,55.7,50.9,61.4,45,74c-5.6,12-3.8,24.8-3,30.3c0.1,0.8,0.2,1.6,0.2,2c0,0.1,0,0.1-0.1,0.2c-1,0.5-1.7,0.8-2.1,1
		c-0.5-0.2-1.4-0.6-2.7-1.2c0-0.4,0.1-1.2,0.2-2c0.8-5.5,2.6-18.2-3-30.3C28.8,61.6,15.5,55.8,9.5,53.8v-8.5c1,1.1,2,2.1,3.2,2.9
		c3.3,2.2,7,3.4,10.8,3.4c4.1,0,8-1.4,11.1-4c0.3-0.1,0.6-0.3,0.8-0.4l3.8,5.1c0.2,0.3,0.5,0.4,0.8,0.4c0.3,0,0.6-0.2,0.8-0.4
		l3.8-5.1c0.6,0.3,1.4,0.7,2.4,1.1c2.9,2,6.3,3.1,10,3.1h0c3.7,0,7.5-1.1,10.8-3.2c0.8-0.5,1.6-1.2,2.4-1.9V53.7z M76,30.1
		c-2.4,8.5-5.5,14.2-9.1,16.4c-2.6,1.6-5.4,2.5-8.2,2.8c6-1.9,10.4-7.6,10.4-14.3c0-8.3-6.7-15-15-15c-1.7,0-3.3,0.3-4.8,0.8
		c3.3-1.7,9.4-2.7,17.8-2.7c4.9,0,9.4,0.3,11.3,0.5C78.1,20.6,77.4,25.2,76,30.1z"/>
	<path d="M26.1,25.8c-5,0-9.1,4.1-9.1,9.1s4.1,9.1,9.1,9.1c5,0,9.1-4.1,9.1-9.1S31.1,25.8,26.1,25.8z M26.1,38.2
		c-1.9,0-3.4-1.5-3.4-3.4s1.5-3.4,3.4-3.4c1.9,0,3.4,1.5,3.4,3.4S27.9,38.2,26.1,38.2z"/>
	<path d="M53.9,25.8c-5,0-9.1,4.1-9.1,9.1s4.1,9.1,9.1,9.1c5,0,9.1-4.1,9.1-9.1S58.9,25.8,53.9,25.8z M53.9,38.2
		c-1.9,0-3.4-1.5-3.4-3.4s1.5-3.4,3.4-3.4c1.9,0,3.4,1.5,3.4,3.4S55.8,38.2,53.9,38.2z"/>
	<path stroke-width="0.25" stroke-miterlimit="10" d="M102.4,26.7h-3.1C99.1,26.1,99,25.5,99,25
		c0-0.4,0.1-0.7,0.3-0.8c0.2-0.2,0.5-0.3,0.9-0.3h10.9c6.8,0,11.4,0.8,13.7,2.5c2.3,1.7,3.5,4.4,3.5,8.2c0,3.9-1.4,7-4.2,9.1
		c-2.8,2.2-7.5,3.3-14,3.3h-1.4c0,5.6,0.1,9.3,0.2,11.2h4.2c0.2,0.5,0.3,1.1,0.3,1.6c0,0.5-0.1,0.8-0.3,1c-0.2,0.2-0.5,0.3-1,0.3
		h-13c-0.2-0.6-0.4-1.2-0.4-1.7c0-0.4,0.1-0.7,0.3-0.8c0.2-0.2,0.5-0.3,0.9-0.3h2.5c0.1-2.5,0.2-9,0.2-19.4
		C102.7,33.3,102.6,29.2,102.4,26.7z M110.9,43.6c4,0,6.8-0.6,8.4-1.7c1.6-1.1,2.4-3.1,2.4-5.8c0-2.6-0.8-4.6-2.3-6.1
		c-1.5-1.4-4-2.1-7.4-2.1c-1.1,0-2.2,0.1-3.1,0.3c-0.1,1.6-0.2,5.2-0.2,11v4.4H110.9z"/>
	<path stroke-width="0.25" stroke-miterlimit="10" d="M132,35.5c0-0.5,0.2-0.8,0.6-0.9
		c0.4-0.1,2.8-0.3,7.2-0.4c0.1,0.8,0.1,1.9,0,3.3c2-1.4,3.9-2.3,5.8-2.8c1.9-0.5,3.5-0.8,5.1-0.8c0.5,0,0.8,0.1,1,0.2
		c0.2,0.1,0.3,0.4,0.3,0.8c0,0.8-0.1,1.6-0.4,2.5c-0.2,0.9-0.5,1.4-0.9,1.7c-0.3,0.2-0.9,0.4-1.7,0.5c-0.8,0.1-1.3,0.2-1.4,0.1
		c-0.1-0.1-0.5-0.6-1.2-1.5c-1.6,0-2.9,0.5-3.9,1.5c-1,1-1.5,3.1-1.5,6.2c0,5.6,0.1,9.7,0.2,12.4h3.8c0.2,0.5,0.3,1,0.3,1.5
		c0,0.5-0.1,0.8-0.3,1c-0.2,0.2-0.6,0.3-1.1,0.3h-11.5c-0.2-0.6-0.4-1.1-0.4-1.6c0-0.4,0.1-0.7,0.3-0.9c0.2-0.2,0.5-0.3,1-0.3h1.9
		c0.1-2.7,0.2-6.2,0.2-10.6c0-5.3-0.2-8.4-0.6-9.3c-0.4-0.9-1.2-1.3-2.4-1.3C132.1,36.5,132,36,132,35.5z"/>
	<path stroke-width="0.25" stroke-miterlimit="10" d="M170.9,58.8c-1.5,0.9-3.1,1.6-4.7,2
		c-1.6,0.5-3.2,0.7-4.7,0.7c-2.4,0-4.3-0.6-5.5-1.7c-1.2-1.1-1.8-2.9-1.8-5.1c0-2.8,1-4.9,3-6.4c2-1.5,5-2.2,9.1-2.2h4
		c-0.1-3.2-0.6-5.4-1.4-6.7c-0.8-1.2-2.2-1.9-4.3-1.9c-1.1,0-2.1,0.1-3.1,0.3c-0.5,1-0.8,1.6-0.9,1.7c-0.1,0.1-0.6,0.2-1.6,0.5
		c-0.9,0.2-1.6,0.2-2-0.1c-0.4-0.3-0.8-0.9-1.1-1.8c-0.4-0.9-0.6-1.6-0.6-2.1c0-0.4,0.1-0.6,0.4-0.8c0.3-0.2,1.5-0.4,3.7-0.7
		c2.1-0.3,4.4-0.4,6.8-0.4c3.2,0,5.6,0.6,7.1,1.7c1.5,1.1,2.3,3.1,2.3,6.1v8.4c0,3.9,0.2,6.2,0.5,7.1c0.3,0.9,0.9,1.2,1.7,1
		c0.2,0.4,0.3,0.8,0.3,1.2c0,0.6-0.4,1.1-1.2,1.4c-0.8,0.3-1.8,0.5-3.1,0.5c-0.6,0-1.1-0.1-1.5-0.2
		C172.1,60.9,171.6,60.1,170.9,58.8z M170.3,49.6c-1.6-0.3-3.2-0.4-4.8-0.4c-2.1,0-3.5,0.3-4.3,1c-0.8,0.7-1.2,1.8-1.2,3.3
		c0,1.4,0.4,2.5,1.1,3.3c0.7,0.7,1.9,1.1,3.4,1.1c1.2,0,2.3-0.2,3.3-0.7c1-0.5,1.7-1.1,2-2c0.3-0.8,0.5-2.2,0.5-4V49.6z"/>
	<path stroke-width="0.25" stroke-miterlimit="10" d="M199.7,37.5h-1.5c-0.2-0.5-0.3-1.1-0.3-1.6
		c0-0.5,0.1-0.9,0.3-1.1c0.2-0.2,0.5-0.3,1-0.3h7.1c0.2,0.5,0.4,1.1,0.4,1.6c0,0.6-0.1,0.9-0.4,1.1c-0.2,0.2-0.6,0.3-1.2,0.3h-0.4
		c-0.7,1.8-2.1,5.9-4.2,12.2c-2.1,6.3-3.5,9.8-4.1,10.7c-0.6,0.8-1.6,1.2-2.9,1.2c-2.2,0-3.3-0.1-3.5-0.3c-0.2-0.2-1.2-3.4-3.2-9.6
		c-2-6.2-3.2-9.9-3.6-11c-0.4-1.1-0.8-2-1.1-2.5c-0.3-0.5-0.6-0.8-1-0.9c-0.4-0.1-0.9-0.2-1.5-0.2c-0.2-0.6-0.4-1.1-0.4-1.6
		c0-0.5,0.3-0.9,0.9-1.1c0.6-0.2,2.1-0.2,4.7-0.2c1.1,0,1.9,0.1,2.3,0.3c0.4,0.2,0.8,0.5,1,1c0.2,0.5,0.5,1.5,0.8,3.2
		c0.3,1.7,1.2,5.1,2.7,10.4c1.5,5.2,2.4,7.8,2.5,7.8c0.2,0,1.1-2.7,2.7-8.2C198.5,43,199.4,39.4,199.7,37.5z"/>
	<path stroke-width="0.25" stroke-miterlimit="10" d="M219.7,61.5c-3.9,0-6.8-1-8.7-3.1
		c-1.8-2.1-2.8-5.2-2.8-9.4c0-4.8,1.1-8.6,3.4-11.3c2.2-2.7,5.5-4,9.7-4c3.9,0,6.8,1,8.7,3.1c1.8,2.1,2.8,5.2,2.8,9.4
		c0,4.8-1.1,8.6-3.4,11.2C227.1,60.2,223.9,61.5,219.7,61.5z M220.7,57.9c2.1,0,3.6-0.8,4.5-2.3c0.9-1.6,1.4-4,1.4-7.2
		c0-3.7-0.5-6.5-1.4-8.3c-0.9-1.8-2.6-2.7-4.9-2.7c-2.1,0-3.6,0.8-4.5,2.3c-0.9,1.6-1.4,4-1.4,7.2c0,3.7,0.5,6.5,1.4,8.3
		C216.8,57,218.4,57.9,220.7,57.9z"/>
	<g>
		<path stroke-width="0.1" stroke-miterlimit="10" d="M105.9,83.9c-0.7,0.4-1.4,0.7-2.1,0.9
			c-0.7,0.2-1.4,0.3-2.1,0.3c-1.1,0-1.9-0.3-2.5-0.8c-0.5-0.5-0.8-1.3-0.8-2.3c0-1.2,0.4-2.2,1.3-2.9c0.9-0.7,2.3-1,4.1-1h1.8
			c0-1.4-0.3-2.4-0.6-3c-0.4-0.6-1-0.8-1.9-0.8c-0.5,0-1,0-1.4,0.1c-0.2,0.5-0.4,0.7-0.4,0.8c0,0-0.3,0.1-0.7,0.2
			c-0.4,0.1-0.7,0.1-0.9-0.1c-0.2-0.2-0.3-0.4-0.5-0.8c-0.2-0.4-0.3-0.7-0.3-1c0-0.2,0.1-0.3,0.2-0.4c0.1-0.1,0.7-0.2,1.6-0.3
			c1-0.1,2-0.2,3.1-0.2c1.4,0,2.5,0.2,3.2,0.7c0.7,0.5,1,1.4,1,2.7v3.8c0,1.7,0.1,2.8,0.2,3.2c0.2,0.4,0.4,0.5,0.8,0.5
			c0.1,0.2,0.1,0.4,0.1,0.5c0,0.3-0.2,0.5-0.5,0.6c-0.3,0.1-0.8,0.2-1.4,0.2c-0.3,0-0.5,0-0.7-0.1C106.5,84.8,106.3,84.5,105.9,83.9
			z M105.7,79.7c-0.7-0.1-1.4-0.2-2.2-0.2c-0.9,0-1.6,0.2-2,0.5c-0.4,0.3-0.6,0.8-0.6,1.5c0,0.7,0.2,1.1,0.5,1.5
			c0.3,0.3,0.8,0.5,1.5,0.5c0.5,0,1-0.1,1.5-0.3c0.5-0.2,0.8-0.5,0.9-0.9c0.2-0.4,0.2-1,0.2-1.8V79.7z"/>
		<path stroke-width="0.1" stroke-miterlimit="10" d="M120.1,74c0.5,0.8,0.7,1.7,0.7,2.6
			c0,1.4-0.4,2.5-1.3,3.3c-0.9,0.8-2.3,1.3-4.2,1.3c-0.9,0-1.4,0.1-1.7,0.3c-0.3,0.2-0.4,0.5-0.4,0.8c0,0.4,0.2,0.7,0.5,0.9
			c0.3,0.2,1.6,0.3,3.8,0.3c2.1,0,3.5,0.2,4.1,0.7c0.6,0.4,0.9,1.1,0.9,1.9c0,1.3-0.7,2.3-2,3.1c-1.3,0.8-3.4,1.1-6.2,1.1
			c-1.4,0-2.3-0.2-2.8-0.6c-0.5-0.4-0.7-0.9-0.7-1.6c0-0.5,0.1-1,0.4-1.5c0.3-0.5,0.6-1,1.1-1.5c-0.4-0.2-0.7-0.4-1-0.7
			c-0.2-0.3-0.4-0.7-0.4-1.2c0-0.5,0.2-0.9,0.5-1.4c0.3-0.4,0.8-0.8,1.4-1.1c-0.5-0.2-0.9-0.6-1.3-1.1c-0.3-0.5-0.5-1.3-0.5-2.1
			c0-1.4,0.4-2.6,1.3-3.5c0.9-0.9,2.2-1.4,4-1.4c1,0,1.9,0.2,2.7,0.5c1.1-0.5,1.7-0.7,1.9-0.7c1,0,1.5,0,1.6,0.1
			c0.1,0.1,0.1,0.1,0.1,0.3c0,0.2-0.1,0.5-0.3,0.9c-0.2,0.4-0.4,0.6-0.5,0.6c-0.2,0-0.7-0.2-1.6-0.6L120.1,74z M113.9,85.2
			c-0.3,0.3-0.5,0.6-0.7,1c-0.2,0.4-0.2,0.7-0.2,1.1c0,0.6,0.2,1,0.5,1.2c0.3,0.2,1,0.4,2,0.4c1.5,0,2.6-0.2,3.3-0.5
			c0.7-0.4,1.1-0.9,1.1-1.5c0-0.6-0.3-1-0.8-1.2C118.6,85.3,116.9,85.2,113.9,85.2z M115.9,73.9c-0.8,0-1.4,0.2-1.7,0.7
			c-0.4,0.4-0.6,1.2-0.6,2.4c0,1,0.2,1.7,0.5,2.1c0.4,0.4,0.9,0.7,1.7,0.7c0.8,0,1.4-0.2,1.8-0.6c0.4-0.4,0.6-1.2,0.6-2.3
			c0-1-0.2-1.7-0.6-2.2C117.3,74.2,116.7,73.9,115.9,73.9z"/>
		<path stroke-width="0.1" stroke-miterlimit="10" d="M129,72.6c1.5,0,2.6,0.4,3.4,1.1
			c0.7,0.7,1.1,1.9,1.1,3.6c0,0.7-0.1,1.2-0.4,1.5c-0.3,0.3-0.8,0.4-1.7,0.4h-5.4c0,1.3,0.3,2.4,0.8,3.1c0.5,0.8,1.4,1.1,2.7,1.1
			c1.2,0,2.4-0.3,3.4-1c0.4,0.4,0.5,0.7,0.5,1.1c0,0.5-0.5,0.9-1.4,1.2S130.2,85,129,85c-2.1,0-3.6-0.4-4.5-1.3
			c-0.9-0.9-1.4-2.4-1.4-4.5c0-2.1,0.5-3.7,1.5-4.9C125.7,73.1,127.1,72.6,129,72.6z M128.5,74.2c-0.8,0-1.4,0.3-1.9,0.9
			c-0.4,0.6-0.7,1.5-0.7,2.7h1.3c1.3,0,2.3,0,2.7-0.1c0.5-0.1,0.8-0.1,0.8-0.3c0.1-0.1,0.1-0.4,0.1-0.7c0-0.8-0.2-1.4-0.6-1.9
			C129.9,74.4,129.3,74.2,128.5,74.2z"/>
		<path stroke-width="0.1" stroke-miterlimit="10" d="M138.7,74.2c0.8-0.5,1.6-0.9,2.4-1.2
			c0.8-0.3,1.5-0.4,2.1-0.4c1.1,0,1.9,0.3,2.5,0.8c0.6,0.5,0.8,1.5,0.8,2.9c0,4.4,0.1,6.7,0.2,7c0.1,0.3,0.4,0.4,0.9,0.4
			c0.1,0.2,0.1,0.5,0.1,0.7c0,0.2-0.1,0.4-0.2,0.4c-0.1,0.1-0.4,0.1-0.8,0.1c-1.1,0-1.8,0-2.1,0c-0.3,0-0.4-0.1-0.5-0.3
			c-0.1-0.1-0.1-0.4-0.1-0.7v-5.3c0-1.7-0.2-2.8-0.5-3.4c-0.4-0.6-0.9-0.8-1.7-0.8c-0.7,0-1.3,0.2-1.8,0.6c-0.5,0.4-0.7,1.1-0.7,2.1
			v2.6c0,1.4,0,2.8,0.1,4h1.4c0.1,0.2,0.1,0.4,0.1,0.7c0,0.2,0,0.4-0.1,0.5c-0.1,0.1-0.3,0.1-0.5,0.1h-4.8c-0.1-0.3-0.2-0.5-0.2-0.7
			c0-0.2,0-0.3,0.1-0.4c0.1-0.1,0.2-0.1,0.4-0.1h0.8c0.1-1.3,0.1-2.9,0.1-4.8c0-2.4-0.1-3.8-0.3-4.2c-0.2-0.4-0.5-0.6-1.1-0.6
			c-0.1-0.2-0.2-0.5-0.2-0.7c0-0.2,0.1-0.4,0.3-0.4c0.2-0.1,1.3-0.1,3.2-0.2C138.8,73.1,138.8,73.6,138.7,74.2z"/>
		<path stroke-width="0.1" stroke-miterlimit="10" d="M154.6,85.1c-2,0-3.4-0.4-4.3-1.3
			c-0.8-0.8-1.3-2.3-1.3-4.3c0-2.3,0.5-4,1.6-5.2c1.1-1.2,2.7-1.8,4.9-1.8c1.1,0,1.8,0.1,2.3,0.3c0.5,0.2,0.7,0.5,0.7,0.9
			c0,0.5-0.2,1-0.5,1.4c-1.2-0.6-2.3-1-3.1-1c-1.1,0-1.9,0.4-2.4,1.1c-0.5,0.7-0.7,1.9-0.7,3.4c0,1.6,0.2,2.8,0.7,3.6
			c0.5,0.8,1.3,1.2,2.5,1.2c0.9,0,2-0.3,3.3-0.9c0.3,0.4,0.4,0.8,0.4,1.2c0,0.5-0.4,0.8-1.3,1.1C156.7,85,155.7,85.1,154.6,85.1z"/>
		<path stroke-width="0.1" stroke-miterlimit="10" d="M171.2,74.2c-0.4,1.2-1.2,3.7-2.4,7.6
			c-1.2,3.8-2.1,6.1-2.6,6.8c-0.6,0.7-1.2,1.1-1.9,1.3c-0.7,0.2-1.5,0.3-2.4,0.3c-0.9,0-1.5-0.1-1.7-0.2c-0.3-0.1-0.4-0.4-0.4-0.7
			c0-0.4,0.1-0.8,0.4-1.2c1.5,0.3,2.7,0.4,3.4,0.3c0.7-0.1,1.4-1.2,2.2-3.5c-0.7,0-1-0.1-1.1-0.1c-0.1,0-0.5-1.4-1.3-4.1
			c-0.8-2.7-1.3-4.4-1.5-5c-0.2-0.6-0.4-1-0.5-1.2c-0.1-0.2-0.3-0.4-0.4-0.4c-0.2-0.1-0.4-0.1-0.7-0.1c-0.1-0.3-0.2-0.5-0.2-0.7
			c0-0.3,0.1-0.4,0.4-0.5c0.3-0.1,0.8-0.1,1.7-0.1c0.7,0,1.1,0,1.3,0.1c0.2,0.1,0.4,0.2,0.5,0.4c0.1,0.2,0.2,0.8,0.4,1.7
			c0.2,0.9,0.6,2.5,1.2,4.7c0.6,2.2,0.9,3.3,1,3.3c0.1,0,0.4-1.3,1.1-3.8c0.7-2.5,1.1-4.2,1.2-5h-0.7c-0.1-0.2-0.1-0.5-0.1-0.7
			c0-0.2,0-0.4,0.1-0.5c0.1-0.1,0.2-0.1,0.5-0.1h3.5c0.1,0.2,0.2,0.5,0.2,0.7c0,0.3-0.1,0.4-0.2,0.5c-0.1,0.1-0.3,0.1-0.6,0.1H171.2
			z"/>
	</g>
</g>
</svg>
